:version 1.10
:name ASF
:units
  mass 1
  length 1
  angle deg
:documentation
  ASF file generated by Kaydara
:root
  axis xyz
  order  tx ty tz rx ry rz
  position 0 0 0
  orientation 0 0 0
:bonedata
  begin
    id 1
    name RightUpLegDummy
    direction -0.718183 -0.695806 0.00816078
    length 4.904
    axis 0 0 0 xyz
  end
  begin
    id 2
    name RightUpLeg
    direction 3.53989e-006 -0.995788 0.0916897
    length 17.4976
    axis -3.49089 -0.000906621 0.000287158 xyz
    dof rx ry rz
  end
  begin
    id 3
    name RightLeg
    direction 0.00371093 -0.995096 -0.0988418
    length 16.5821
    axis 3.68512 0.0193738 -0.131023 xyz
    dof rx ry rz
  end
  begin
    id 4
    name RightFoot
    direction 0.000791514 -0.46099 0.887405
    length 3.77069
    axis 4.84075e-005 -0.120479 -0.188788 xyz
    dof rx ry rz
  end
  begin
    id 5
    name RightToes
    direction 0.00124746 -0.014064 0.9999
    length 3.85082
    axis 0.00048216 0.542163 -0.142577 xyz
    dof rx ry rz
  end
  begin
    id 6
    name SpineDummy
    direction 8.36599e-015 1 5.97571e-016
    length 4.6813
    axis 0 0 0 xyz
  end
  begin
    id 7
    name Spine
    direction -4.63632e-008 0.999988 0.00495137
    length 10.1015
    axis -0.00138897 0.000121419 3.25764e-006 xyz
    dof rx ry rz
  end
  begin
    id 8
    name Spine1
    direction 0 0 0
    length 0
    axis -0.00138896 0.000121452 2.39764e-006 xyz
    dof rx ry rz
  end
  begin
    id 9
    name HEadDummy
    direction -3.91456e-008 0.999999 0.00127422
    length 3.43865
    axis -0.00138896 0.000121452 2.39764e-006 xyz
  end
  begin
    id 10
    name HEad
    direction -0.0222688 0.980941 0.193023
    length 5.12695
    axis -0.00138895 0.000121452 2.39764e-006 xyz
    dof rx ry rz
  end
  begin
    id 11
    name LeftShoulder1Dummy
    direction 0.998891 -0.0402508 -0.0244456
    length 3.5433
    axis -0.00138896 0.000121452 2.39764e-006 xyz
  end
  begin
    id 12
    name LeftShoulder1
    direction 0.99951 -0.000327743 0.0313091
    length 4.05031
    axis -0.00138896 0.000121452 2.39764e-006 xyz
    dof rx ry rz
  end
  begin
    id 13
    name LeftArm
    direction 0.998561 -0.00100054 -0.0536182
    length 10.3537
    axis -23.1894 0.134784 0.96751 xyz
    dof rx ry rz
  end
  begin
    id 14
    name LeftForeArm
    direction 0.998903 0.00866434 0.046012
    length 8.70632
    axis -9.91835 -0.06569 -0.177792 xyz
    dof rx ry rz
  end
  begin
    id 15
    name LeftHand
    direction 0.992938 -0.0411636 0.11126
    length 5.32135
    axis -0.00960227 -0.00340091 0.185174 xyz
    dof rx ry rz
  end
  begin
    id 16
    name RightShoulderDummy
    direction -0.998891 -0.0402509 -0.0244414
    length 3.5433
    axis -0.00138896 0.000121452 2.39764e-006 xyz
  end
  begin
    id 17
    name RightShoulder
    direction -0.99951 -0.000327827 0.0313133
    length 4.05031
    axis 0.215806 0.000203644 -0.00680151 xyz
    dof rx ry rz
  end
  begin
    id 18
    name RightArm
    direction -0.998573 -0.000999583 -0.053403
    length 10.3947
    axis -23.2009 -0.134239 -0.9641 xyz
    dof rx ry rz
  end
  begin
    id 19
    name RightForeArm
    direction -0.998898 0.00868026 0.0461306
    length 8.68355
    axis -9.92322 0.0658061 0.178869 xyz
    dof rx ry rz
  end
  begin
    id 20
    name RightHand
    direction -0.992843 -0.0414603 0.112003
    length 5.28593
    axis -0.00960634 0.00330671 -0.185226 xyz
    dof rx ry rz
  end
  begin
    id 21
    name LeftUpLegDummy
    direction 0.718183 -0.695806 0.00816078
    length 4.904
    axis 0 0 0 xyz
  end
  begin
    id 22
    name LeftUpLeg
    direction -6.8115e-006 -0.995793 0.0916336
    length 17.4976
    axis -3.48766 0.00143441 -0.000523914 xyz
    dof rx ry rz
  end
  begin
    id 23
    name LeftLeg
    direction -0.00601357 -0.995091 -0.0987824
    length 16.5821
    axis 3.68177 -0.00654038 -0.00028478 xyz
    dof rx ry rz
  end
  begin
    id 24
    name LeftFoot
    direction -0.00417578 -0.460984 0.887399
    length 3.77069
    axis 1.87232e-006 4.66002e-005 -8.1837e-006 xyz
    dof rx ry rz
  end
  begin
    id 25
    name LeftToes
    direction 0.00818058 -0.00485161 0.999955
    length 3.85048
    axis 1.06246e-005 4.65855e-005 -8.18502e-006 xyz
    dof rx ry rz
  end
:hierarchy
  begin
    root RightUpLegDummy SpineDummy LeftUpLegDummy
    RightUpLegDummy RightUpLeg
    RightUpLeg RightLeg
    RightLeg RightFoot
    RightFoot RightToes
    SpineDummy Spine
    Spine Spine1
    Spine1 HEadDummy LeftShoulder1Dummy RightShoulderDummy
    HEadDummy HEad
    LeftShoulder1Dummy LeftShoulder1
    LeftShoulder1 LeftArm
    LeftArm LeftForeArm
    LeftForeArm LeftHand
    RightShoulderDummy RightShoulder
    RightShoulder RightArm
    RightArm RightForeArm
    RightForeArm RightHand
    LeftUpLegDummy LeftUpLeg
    LeftUpLeg LeftLeg
    LeftLeg LeftFoot
    LeftFoot LeftToes
  end

:SAMPLES-PER-SECOND 30
:FULLY-SPECIFIED
:DEGREES
1
root  -2.72551 40.9186 1.64745 -23.1967 -88.6282 24.0207
RightUpLeg  2.79411 -0.974822 -1.73192
RightLeg  -0.605141 -17.7694 -0.579227
RightFoot  -1.76406 -0.311713 3.68615
RightToes  -3.10678e-008 1.75238e-005 3.56266e-009
Spine  -0.413373 -1.08339 -2.41055
Spine1  -1.9467 -1.02994 0.284001
HEad  -1.79456 -8.69689 2.77424
LeftShoulder1  0.136749 1.70417 1.23525
LeftArm  -53.7328 -10.1658 6.57967
LeftForeArm  55.727 4.05026 6.6994
LeftHand  -0.142984 -0.010372 3.09654
RightShoulder  0.151761 -1.73021 0.245896
RightArm  -43.8995 9.35807 -0.510425
RightForeArm  34.941 -5.354 0.121416
RightHand  0.123159 2.45128 1.62464
LeftUpLeg  2.2549 -0.105732 0.0926067
LeftLeg  -1.37228 13.9476 -0.794636
LeftFoot  -1.39074 0.106516 -1.06741
LeftToes  4.76857e-008 1.46588e-008 1.31384e-009
2
root  -2.72179 40.9186 1.6422 -22.9377 -88.6352 23.7671
RightUpLeg  2.80377 -0.96949 -1.71487
RightLeg  -0.665718 -17.7769 -0.554235
RightFoot  -1.70586 -0.307094 3.61446
RightToes  -3.10678e-008 1.75238e-005 3.56266e-009
Spine  -0.387092 -1.06579 -2.39739
Spine1  -1.95924 -1.01262 0.280133
HEad  -1.60126 -9.13042 2.70816
LeftShoulder1  0.136749 1.65072 1.17907
LeftArm  -53.543 -10.1087 6.62523
LeftForeArm  55.3006 4.09917 6.49735
LeftHand  -0.125916 0.374472 2.90142
RightShoulder  0.151765 -1.70089 0.327976
RightArm  -43.9637 9.40895 -0.552073
RightForeArm  34.3964 -5.29632 0.135661
RightHand  0.10023 2.07291 1.38967
LeftUpLeg  2.29451 -0.050876 0.135072
LeftLeg  -1.48279 13.9136 -0.871026
LeftFoot  -1.32465 0.103908 -1.02688
LeftToes  4.76857e-008 1.46588e-008 1.31384e-009
3
root  -2.72134 40.9186 1.63651 -23.0161 -88.6636 23.876
RightUpLeg  2.79766 -0.937631 -1.68827
RightLeg  -0.736201 -17.7962 -0.541092
RightFoot  -1.69453 -0.307486 3.62054
RightToes  -3.10678e-008 1.75238e-005 3.56266e-009
Spine  -0.501975 -1.08637 -2.13099
Spine1  -1.78088 -0.98006 -0.114024
HEad  -1.6715 -9.03011 2.86347
LeftShoulder1  0.138792 1.62588 1.213
LeftArm  -53.052 -9.91765 6.81032
LeftForeArm  54.7252 4.20352 6.00741
LeftHand  -0.140572 0.53104 3.32657
RightShoulder  0.151769 -1.70104 0.471001
RightArm  -44.2039 9.62715 -0.505249
RightForeArm  34.9825 -5.43475 -0.0753395
RightHand  0.112699 2.3197 1.50179
LeftUpLeg  2.30396 -0.0316832 0.162801
LeftLeg  -1.57836 13.914 -0.903545
LeftFoot  -1.2666 0.0994644 -0.957818
LeftToes  4.76857e-008 1.46588e-008 1.31384e-009
4
root  -2.72681 40.9189 1.62672 -23.7476 -88.7166 24.6295
RightUpLeg  2.79058 -0.893946 -1.64676
RightLeg  -0.781238 -17.8279 -0.555328
RightFoot  -1.67337 -0.305738 3.59343
RightToes  -3.10678e-008 1.75238e-005 3.56266e-009
Spine  -0.490268 -0.996655 -2.01837
Spine1  -1.82246 -0.869257 -0.265619
HEad  -1.63895 -8.73924 2.80937
LeftShoulder1  0.155542 1.41132 1.14988
LeftArm  -53.11 -9.88566 6.93944
LeftForeArm  54.7998 4.19325 6.05259
LeftHand  -0.137696 0.469614 3.21998
RightShoulder  0.151759 -1.79925 0.519
RightArm  -44.1886 9.628 -0.597779
RightForeArm  35.5371 -5.45782 -0.0790817
RightHand  0.156961 3.09236 1.92226
LeftUpLeg  2.3319 -0.043901 0.172549
LeftLeg  -1.6586 13.9956 -0.902237
LeftFoot  -1.22294 0.105312 -1.0487
LeftToes  4.76857e-008 1.46588e-008 1.31384e-009
5
root  -2.73466 40.9205 1.61431 -22.078 -88.6769 22.9833
RightUpLeg  2.86649 -0.875986 -1.60797
RightLeg  -0.951556 -17.8921 -0.485897
RightFoot  -1.61564 -0.302905 3.54946
RightToes  -3.10678e-008 1.75238e-005 3.56266e-009
Spine  -0.457762 -1.01929 -1.99459
Spine1  -1.91487 -0.883999 -0.328379
HEad  -1.49273 -8.47595 2.77679
LeftShoulder1  0.154122 1.4534 1.17928
LeftArm  -53.2594 -9.94535 6.89711
LeftForeArm  55.1348 4.1564 6.20328
LeftHand  -0.138449 0.0593151 3.06761
RightShoulder  0.155911 -1.75683 0.543436
RightArm  -44.1012 9.52215 -0.619113
RightForeArm  35.285 -5.29361 0.0210464
RightHand  0.169339 3.14757 2.07015
LeftUpLeg  2.33624 -0.111229 0.16836
LeftLeg  -1.71178 13.9999 -0.819225
LeftFoot  -1.18328 0.108921 -1.1048
LeftToes  4.76857e-008 1.46588e-008 1.31384e-009
6
root  -2.74691 40.9224 1.6039 -21.662 -88.6754 22.5932
RightUpLeg  2.88578 -0.845647 -1.56926
RightLeg  -1.02111 -17.9342 -0.479963
RightFoot  -1.57773 -0.30118 3.52268
RightToes  -3.10678e-008 1.75238e-005 3.56266e-009
Spine  -0.570538 -0.999156 -2.02353
Spine1  -1.8365 -0.859374 -0.335894
HEad  -1.47693 -7.86296 2.6535
LeftShoulder1  0.155969 1.54004 1.2032
LeftArm  -53.4614 -10.1396 6.78162
LeftForeArm  55.2961 4.12113 6.37445
LeftHand  -0.138239 -0.0310734 3.10093
RightShoulder  0.163008 -1.70568 0.699722
RightArm  -43.9752 9.48957 -0.819693
RightForeArm  34.7673 -5.14525 0.204346
RightHand  0.153435 2.73951 1.98072
LeftUpLeg  2.38051 -0.113704 0.185185
LeftLeg  -1.81831 14.0012 -0.828119
LeftFoot  -1.14158 0.110366 -1.12726
LeftToes  4.76857e-008 1.46588e-008 1.31384e-009
7
root  -2.76744 40.9242 1.59147 -22.4319 -88.759 23.3714
RightUpLeg  2.89701 -0.792317 -1.52133
RightLeg  -1.02369 -17.917 -0.500095
RightFoot  -1.57669 -0.303051 3.55172
RightToes  -3.10678e-008 1.75238e-005 3.56266e-009
Spine  -0.645241 -0.937958 -1.96956
Spine1  -1.84739 -0.77927 -0.466636
HEad  -1.33431 -7.70027 2.50393
LeftShoulder1  0.156875 1.40249 1.45471
LeftArm  -53.1802 -9.92821 6.66217
LeftForeArm  55.0135 4.1652 6.17443
LeftHand  -0.138669 0.215884 3.09515
RightShoulder  0.167095 -1.66794 0.817524
RightArm  -44.0851 9.49779 -0.901213
RightForeArm  34.8075 -5.17584 0.125403
RightHand  0.148617 2.75723 1.9058
LeftUpLeg  2.48649 -0.0766164 0.228239
LeftLeg  -1.97563 14.0297 -0.871335
LeftFoot  -1.08936 0.111129 -1.13912
LeftToes  4.76857e-008 1.46588e-008 1.31384e-009
8
root  -2.78 40.9252 1.58412 -22.4062 -88.7631 23.3918
RightUpLeg  2.85398 -0.824678 -1.52684
RightLeg  -0.996005 -17.8899 -0.463518
RightFoot  -1.616 -0.298193 3.47633
RightToes  -3.10678e-008 1.75238e-005 3.56266e-009
Spine  -0.727153 -0.921556 -2.01213
Spine1  -1.87287 -0.760903 -0.450573
HEad  -1.09719 -7.7963 2.39159
LeftShoulder1  0.151689 1.39687 1.41013
LeftArm  -53.3725 -10.0402 6.66075
LeftForeArm  55.219 4.12855 6.34592
LeftHand  -0.139958 0.299407 3.07941
RightShoulder  0.169575 -1.61103 0.815694
RightArm  -44.229 9.54125 -0.869541
RightForeArm  34.8584 -5.33886 -0.016981
RightHand  0.151053 2.75781 1.93796
LeftUpLeg  2.47774 -0.0898799 0.235971
LeftLeg  -2.02037 14.0472 -0.875068
LeftFoot  -1.08126 0.110332 -1.12672
LeftToes  4.76857e-008 1.46588e-008 1.31384e-009
